<?xml version="1.0" encoding="utf-8"?>
<!-- Generator: Adobe Illustrator 24.0.0, SVG Export Plug-In . SVG Version: 6.00 Build 0)  -->
<svg version="1.1" id="Livello_1" xmlns="http://www.w3.org/2000/svg" xmlns:xlink="http://www.w3.org/1999/xlink" x="0px" y="0px"
	 viewBox="0 0 1000 1000" style="enable-background:new 0 0 1000 1000;" xml:space="preserve">
<g>
	<g>
		<path d="M1000,98.9c-8.1,19.2-27.9,24.8-56.6,26.1c-85.1,3.6-170.1,9.1-255.2,13.9c-36.7,2.1-73.5,4.3-110.2,6.1
			c-11.1,0.5-16.5,3.6-19.9,11c-20.6,45.3-41.9,90.4-63.3,135.6c-9.9,20.9-20.2,41.8-31,62.6c-4,7.7-2.2,9.3,10.6,9
			c71.8-1.9,143.5-3,215.3-4.5c13.1-0.3,26.3-2.1,39.3-1.7c34.2,1.1,45.1,14.3,46.7,30.5c1.6,15.2-20,27.8-46.7,28.4
			c-64.7,1.5-129.4,2.4-194.1,4.4c-30.8,1-61.6,2-92.5,2c-9.3,0-13.3,2.5-15.8,8.3c-14.7,33.4-33.4,66-47.9,99.5
			c-4.7,10.8-8.9,20.5-7.2,32.3c8.2,56.8,9.7,113.9,6.2,170.8c-3.3,52.8-12.4,105.4-40.1,155.6c-19.1,34.5-44.8,66-92.4,86.9
			c-21.4,9.4-44.8,15.6-70.2,18.1c-1.7,0.2-3.3,1.3-4.9,1.9c-15.2,0-30.4,0-45.6,0c-7.9-2-15.7-4.1-23.6-6
			c-40.3-9.3-69.6-34.9-72.2-63.2c-2.4-26,3.3-51.3,14.9-76.2c31.7-68.4,82.3-130.9,134-193c5.7-6.8,7-9.1-6.3-11
			c-39.8-5.7-72.5-20.5-100.5-39.4c-32.7-22.1-52.1-49.4-62.5-79.9c-2.8-8.1-1-16.9-8.3-24.3c0-22.4,0-44.8,0-67.2
			c4.1-1.8,3.5-4.8,4-7.3c7.1-41.2,23.8-80.8,44.9-119.7c20.9-38.5,45.8-75.7,75.8-111.4C159.4,155.4,198,115.9,245,80.2
			c27.6-21,58.2-39.3,92.9-54.7c20.4-9.1,43.7-13.1,66.3-18.3c10.1,0,20.3,0,30.4,0c14,5.1,30.4,6.4,43.8,12.8
			c31.9,15.2,50.4,36.5,62.5,60.7c2.6,5.2,5.6,7.7,14.7,7.1c18-1.3,36.2-1.5,54.3-2.6c54.2-3.2,108.4-6.7,162.7-9.7
			c54.8-3,109.6-5.3,164.4-8.6c38.1-2.2,47.7,1,63,23.8C1000,93.5,1000,96.2,1000,98.9z M374.8,349.5c-7.9,1.7-11.1,5.4-15.5,8.1
			c-21,12.7-42.4,25.1-66.2,35.5c-15.4,6.7-33.9,5.2-45.4-3.7c-22.3-17.3-35.2-29.4,4-48c2.1-1,3.9-2.2,5.9-3.2
			c71.4-37.8,135.5-80.3,180.2-133.9c30.4-36.5,44.4-74.6,15.4-115.4c-16.6-23.3-35.4-28-68-14c-23.1,9.9-44.5,21.2-63,34.8
			c-31.4,23-59.7,47.7-84.7,74c-53,55.6-95.9,114.5-123.8,177.9c-20.2,46.1-34.4,92.8-24,141.3c8.1,37.6,34.8,67.3,87.5,83.3
			c33.1,10.1,70.9,6.4,88-21.5c8.2-13.4,16.6-26.9,23.5-40.6c24.1-47.7,47.7-95.5,71.4-143.3C365.2,370.6,369.7,360.4,374.8,349.5z
			 M292.6,645.3c-1.1-0.2-2.2-0.3-3.3-0.5c-1.3,1.3-2.7,2.7-3.9,4c-24.2,27.7-48.1,55.6-70.9,83.9c-36.6,45.4-69.5,91.8-91,141.4
			c-5.9,13.6-10.6,27.7-8.4,42.1c2.7,17.1,13.5,21.5,39,20c33.7-1.9,57.4-13.9,75.6-31.7c28.4-27.8,39.3-59.8,48-92.3
			c9-33.4,12.6-67.2,14.6-101C293.7,689.4,292.6,667.3,292.6,645.3z"/>
	</g>
</g>
</svg>
